<svg xmlns="http://www.w3.org/2000/svg" width="14" height="13" viewBox="0 0 14 13"><defs><mask id="eco7b" width="2" height="2" x="-1" y="-1"><path fill="#fff" d="M0-1h14v14H0z"/><path d="M.714 7.714h6.715v4.355L13.859 6 7.428-.07v4.356H.714z"/></mask><filter id="eco7a" width="34.5" height="34.9" x="-10" y="-11" filterUnits="userSpaceOnUse"><feOffset dx=".5" dy=".9" in="SourceGraphic" result="FeOffset1048Out"/><feGaussianBlur in="FeOffset1048Out" result="FeGaussianBlur1049Out" stdDeviation="0 0"/></filter><filter id="eco7c" width="200%" height="200%" x="-50%" y="-50%"><feGaussianBlur in="SourceGraphic" result="FeGaussianBlur1054Out" stdDeviation="0 0"/></filter><mask id="eco7d"><path fill="#fff" d="M.714 7.714h6.715v4.355L13.859 6 7.428-.07v4.356H.714z"/></mask></defs><g><g><g filter="url(#eco7a)"><path fill="none" d="M.714 7.714h6.715v4.355L13.859 6 7.428-.07v4.356H.714z" mask="url(&quot;#eco7b&quot;)"/><path fill="#81de41" fill-opacity=".99" d="M.714 7.714h6.715v4.355L13.859 6 7.428-.07v4.356H.714z"/></g><path fill="#369430" d="M.714 7.714h6.715v4.355L13.859 6 7.428-.07v4.356H.714z"/><path fill-opacity=".35" d="M-.5 13.9V-1.9h15v15.8zm1.714-5.286h6.715v4.355l6.43-6.069L7.928.83v4.356H1.214z" filter="url(#eco7c)" mask="url(&quot;#eco7d&quot;)"/></g></g></svg>